<?xml version="1.0" encoding="UTF-8" standalone="no"?>
<!DOCTYPE svg PUBLIC "-//W3C//DTD SVG 1.1//EN"
 "http://www.w3.org/Graphics/SVG/1.1/DTD/svg11.dtd">
<!-- Generated by graphviz version 2.26.3 (20100126.1600)
 -->
<!-- Title: G Pages: 1 -->
<svg width="502pt" height="1210pt"
 viewBox="0.00 0.00 502.00 1210.00" xmlns="http://www.w3.org/2000/svg" xmlns:xlink="http://www.w3.org/1999/xlink">
<g id="graph1" class="graph" transform="scale(1 1) rotate(0) translate(4 1206)">
<title>G</title>
<polygon fill="white" stroke="white" points="-4,5 -4,-1206 499,-1206 499,5 -4,5"/>
<g id="graph2" class="cluster"><title>cluster_default</title>
<polyline fill="none" stroke="none" points="216,-8 474,-8 "/>
<path fill="none" stroke="none" d="M474,-8C480,-8 486,-14 486,-20"/>
<polyline fill="none" stroke="none" points="486,-20 486,-1182 "/>
<path fill="none" stroke="none" d="M486,-1182C486,-1188 480,-1194 474,-1194"/>
<polyline fill="none" stroke="none" points="474,-1194 216,-1194 "/>
<path fill="none" stroke="none" d="M216,-1194C210,-1194 204,-1188 204,-1182"/>
<polyline fill="none" stroke="none" points="204,-1182 204,-20 "/>
<path fill="none" stroke="none" d="M204,-20C204,-14 210,-8 216,-8"/>
</g>
<!-- \\InscricaoexamesViewAdminmenu -->
<g id="node2" class="node"><title>\\InscricaoexamesViewAdminmenu</title>
<a xlink:href="site.views.adminmenu.view.html.html" xlink:title="InscricaoexamesViewAdminmenu" target="_parent">
<polygon fill="none" stroke="black" points="448,-1132 242,-1132 242,-1096 448,-1096 448,-1132"/>
<text text-anchor="middle" x="345" y="-1111.1" font-family="Courier,monospace" font-size="11.00">InscricaoexamesViewAdminmenu</text>
</a>
</g>
<!-- \\JView -->
<g id="node25" class="node"><title>\\JView</title>
<ellipse fill="none" stroke="black" cx="70" cy="-1006" rx="41.9273" ry="18.3848"/>
<text text-anchor="middle" x="70" y="-1002.4" font-family="Times Roman,serif" font-size="14.00" fill="gray">\JView</text>
</g>
<!-- \\InscricaoexamesViewAdminmenu&#45;&gt;\\JView -->
<g id="edge3" class="edge"><title>\\InscricaoexamesViewAdminmenu&#45;&gt;\\JView</title>
<path fill="none" stroke="black" d="M241.764,-1098.64C228.852,-1095.44 215.984,-1091.6 204,-1087 165.466,-1072.21 125.503,-1046.47 99.3621,-1027.97"/>
<polygon fill="none" stroke="black" points="101.213,-1024.99 91.0488,-1022 97.1302,-1030.68 101.213,-1024.99"/>
</g>
<!-- \\inscricaoexamesViewinscricaoexames -->
<g id="node3" class="node"><title>\\inscricaoexamesViewinscricaoexames</title>
<a xlink:href="site.views.inscricaoexames.view.html.html" xlink:title="inscricaoexamesViewinscricaoexames" target="_parent">
<polygon fill="none" stroke="black" points="468,-1078 222,-1078 222,-1042 468,-1042 468,-1078"/>
<text text-anchor="middle" x="345" y="-1057.1" font-family="Courier,monospace" font-size="11.00">inscricaoexamesViewinscricaoexames</text>
</a>
</g>
<!-- \\inscricaoexamesViewinscricaoexames&#45;&gt;\\JView -->
<g id="edge5" class="edge"><title>\\inscricaoexamesViewinscricaoexames&#45;&gt;\\JView</title>
<path fill="none" stroke="black" d="M292.415,-1041.97C265.89,-1036.01 233.225,-1029.74 204,-1024 177.087,-1018.71 147.162,-1012.7 122.431,-1008.51"/>
<polygon fill="none" stroke="black" points="122.959,-1005.05 112.525,-1006.9 121.831,-1011.96 122.959,-1005.05"/>
</g>
<!-- \\inscricaoexamesViewinscricaoexames&#45;&gt;\\JView -->
<g id="edge7" class="edge"><title>\\inscricaoexamesViewinscricaoexames&#45;&gt;\\JView</title>
<path fill="none" stroke="black" d="M221.947,-1045.5C215.878,-1044.33 209.87,-1043.15 204,-1042 172.098,-1035.73 135.966,-1028.44 109.266,-1021.64"/>
<polygon fill="none" stroke="black" points="110.087,-1018.23 99.5238,-1019.06 108.294,-1025 110.087,-1018.23"/>
</g>
<!-- \\inscricaoexamesViewcursos -->
<g id="node4" class="node"><title>\\inscricaoexamesViewcursos</title>
<a xlink:href="site.views.cursos.view.html.html" xlink:title="inscricaoexamesViewcursos" target="_parent">
<polygon fill="none" stroke="black" points="437,-1024 253,-1024 253,-988 437,-988 437,-1024"/>
<text text-anchor="middle" x="345" y="-1003.1" font-family="Courier,monospace" font-size="11.00">inscricaoexamesViewcursos</text>
</a>
</g>
<!-- \\inscricaoexamesViewcursos&#45;&gt;\\JView -->
<g id="edge9" class="edge"><title>\\inscricaoexamesViewcursos&#45;&gt;\\JView</title>
<path fill="none" stroke="black" d="M252.281,-999.579C208.57,-998.915 158.081,-999.256 121.339,-1000.6"/>
<polygon fill="none" stroke="black" points="120.729,-997.125 110.88,-1001.03 121.015,-1004.12 120.729,-997.125"/>
</g>
<!-- \\inscricaoexamesViewcursos&#45;&gt;\\JView -->
<g id="edge11" class="edge"><title>\\inscricaoexamesViewcursos&#45;&gt;\\JView</title>
<path fill="none" stroke="black" d="M252.281,-1012.42C208.57,-1013.08 158.081,-1012.74 121.339,-1011.4"/>
<polygon fill="none" stroke="black" points="121.015,-1007.88 110.88,-1010.97 120.729,-1014.88 121.015,-1007.88"/>
</g>
<!-- \\inscricaoexamesViewmodulos -->
<g id="node5" class="node"><title>\\inscricaoexamesViewmodulos</title>
<a xlink:href="site.views.modulos.view.html.html" xlink:title="inscricaoexamesViewmodulos" target="_parent">
<polygon fill="none" stroke="black" points="441,-970 249,-970 249,-934 441,-934 441,-970"/>
<text text-anchor="middle" x="345" y="-949.1" font-family="Courier,monospace" font-size="11.00">inscricaoexamesViewmodulos</text>
</a>
</g>
<!-- \\inscricaoexamesViewmodulos&#45;&gt;\\JView -->
<g id="edge13" class="edge"><title>\\inscricaoexamesViewmodulos&#45;&gt;\\JView</title>
<path fill="none" stroke="black" d="M248.65,-961.432C233.697,-964.202 218.429,-967.165 204,-970 172.098,-976.268 135.966,-983.56 109.266,-990.364"/>
<polygon fill="none" stroke="black" points="108.294,-987.001 99.5238,-992.945 110.087,-993.767 108.294,-987.001"/>
</g>
<!-- \\inscricaoexamesViewmodulos&#45;&gt;\\JView -->
<g id="edge15" class="edge"><title>\\inscricaoexamesViewmodulos&#45;&gt;\\JView</title>
<path fill="none" stroke="black" d="M292.415,-970.03C265.89,-975.993 233.225,-982.258 204,-988 177.087,-993.288 147.162,-999.305 122.431,-1003.49"/>
<polygon fill="none" stroke="black" points="121.831,-1000.04 112.525,-1005.1 122.959,-1006.95 121.831,-1000.04"/>
</g>
<!-- \\inscricaoexamesViewdisciplinas -->
<g id="node6" class="node"><title>\\inscricaoexamesViewdisciplinas</title>
<a xlink:href="site.views.disciplinas.view.html.html" xlink:title="inscricaoexamesViewdisciplinas" target="_parent">
<polygon fill="none" stroke="black" points="454,-916 236,-916 236,-880 454,-880 454,-916"/>
<text text-anchor="middle" x="345" y="-895.1" font-family="Courier,monospace" font-size="11.00">inscricaoexamesViewdisciplinas</text>
</a>
</g>
<!-- \\inscricaoexamesViewdisciplinas&#45;&gt;\\JView -->
<g id="edge17" class="edge"><title>\\inscricaoexamesViewdisciplinas&#45;&gt;\\JView</title>
<path fill="none" stroke="black" d="M235.378,-914.995C224.628,-917.848 214.006,-921.16 204,-925 165.466,-939.789 125.503,-965.529 99.3621,-984.027"/>
<polygon fill="none" stroke="black" points="97.1302,-981.321 91.0488,-989.997 101.213,-987.007 97.1302,-981.321"/>
</g>
<!-- \\InscricaoexamesViewOpcoes -->
<g id="node7" class="node"><title>\\InscricaoexamesViewOpcoes</title>
<a xlink:href="admin.views.opcoes.view.html.html" xlink:title="InscricaoexamesViewOpcoes" target="_parent">
<polygon fill="none" stroke="black" points="437,-862 253,-862 253,-826 437,-826 437,-862"/>
<text text-anchor="middle" x="345" y="-841.1" font-family="Courier,monospace" font-size="11.00">InscricaoexamesViewOpcoes</text>
</a>
</g>
<!-- \\InscricaoexamesViewOpcoes&#45;&gt;\\JView -->
<g id="edge41" class="edge"><title>\\InscricaoexamesViewOpcoes&#45;&gt;\\JView</title>
<path fill="none" stroke="black" d="M252.394,-844.666C235.673,-848.481 218.851,-854.095 204,-862 151.242,-890.083 106.107,-945.932 84.1847,-979.432"/>
<polygon fill="none" stroke="black" points="81.0005,-977.92 78.6301,-988.246 86.9227,-981.652 81.0005,-977.92"/>
</g>
<!-- \\InscricaoexamesViewOpcoes&#45;&gt;\\JView -->
<g id="edge19" class="edge"><title>\\InscricaoexamesViewOpcoes&#45;&gt;\\JView</title>
<path fill="none" stroke="black" d="M253.509,-862.061C236.421,-866.233 219.181,-871.919 204,-880 157.039,-904.997 116.118,-951.994 92.2313,-981.16"/>
<polygon fill="none" stroke="black" points="89.2572,-979.27 85.6661,-989.238 94.6893,-983.685 89.2572,-979.27"/>
</g>
<!-- \\inscricaoexamesViewalunos -->
<g id="node8" class="node"><title>\\inscricaoexamesViewalunos</title>
<a xlink:href="site.views.alunos.view.html.html" xlink:title="inscricaoexamesViewalunos" target="_parent">
<polygon fill="none" stroke="black" points="437,-1186 253,-1186 253,-1150 437,-1150 437,-1186"/>
<text text-anchor="middle" x="345" y="-1165.1" font-family="Courier,monospace" font-size="11.00">inscricaoexamesViewalunos</text>
</a>
</g>
<!-- \\inscricaoexamesViewalunos&#45;&gt;\\JView -->
<g id="edge23" class="edge"><title>\\inscricaoexamesViewalunos&#45;&gt;\\JView</title>
<path fill="none" stroke="black" d="M253.509,-1149.94C236.421,-1145.77 219.181,-1140.08 204,-1132 157.039,-1107 116.118,-1060.01 92.2313,-1030.84"/>
<polygon fill="none" stroke="black" points="94.6893,-1028.31 85.6661,-1022.76 89.2572,-1032.73 94.6893,-1028.31"/>
</g>
<!-- \\inscricaoexamesViewalunos&#45;&gt;\\JView -->
<g id="edge21" class="edge"><title>\\inscricaoexamesViewalunos&#45;&gt;\\JView</title>
<path fill="none" stroke="black" d="M252.394,-1167.33C235.673,-1163.52 218.851,-1157.91 204,-1150 151.242,-1121.92 106.107,-1066.07 84.1847,-1032.57"/>
<polygon fill="none" stroke="black" points="86.9227,-1030.35 78.6301,-1023.75 81.0005,-1034.08 86.9227,-1030.35"/>
</g>
<!-- \\inscricaoexamesModelcursos -->
<g id="node9" class="node"><title>\\inscricaoexamesModelcursos</title>
<a xlink:href="site.models.cursos.html" xlink:title="inscricaoexamesModelcursos" target="_parent">
<polygon fill="none" stroke="black" points="441,-754 249,-754 249,-718 441,-718 441,-754"/>
<text text-anchor="middle" x="345" y="-733.1" font-family="Courier,monospace" font-size="11.00">inscricaoexamesModelcursos</text>
</a>
</g>
<!-- \\JModelItem -->
<g id="node37" class="node"><title>\\JModelItem</title>
<ellipse fill="none" stroke="black" cx="70" cy="-628" rx="68.7979" ry="18.3848"/>
<text text-anchor="middle" x="70" y="-624.4" font-family="Times Roman,serif" font-size="14.00" fill="gray">\JModelItem</text>
</g>
<!-- \\inscricaoexamesModelcursos&#45;&gt;\\JModelItem -->
<g id="edge25" class="edge"><title>\\inscricaoexamesModelcursos&#45;&gt;\\JModelItem</title>
<path fill="none" stroke="black" d="M248.909,-722.351C233.63,-718.832 218.194,-714.448 204,-709 166.378,-694.561 127.394,-669.683 101.241,-651.298"/>
<polygon fill="none" stroke="black" points="103.058,-648.295 92.8845,-645.336 98.9927,-653.993 103.058,-648.295"/>
</g>
<!-- \\inscricaoexamesModelinscricaoexames -->
<g id="node10" class="node"><title>\\inscricaoexamesModelinscricaoexames</title>
<a xlink:href="site.models.inscricaoexames.html" xlink:title="inscricaoexamesModelinscricaoexames" target="_parent">
<polygon fill="none" stroke="black" points="471,-700 219,-700 219,-664 471,-664 471,-700"/>
<text text-anchor="middle" x="345" y="-679.1" font-family="Courier,monospace" font-size="11.00">inscricaoexamesModelinscricaoexames</text>
</a>
</g>
<!-- \\inscricaoexamesModelinscricaoexames&#45;&gt;\\JModelItem -->
<g id="edge27" class="edge"><title>\\inscricaoexamesModelinscricaoexames&#45;&gt;\\JModelItem</title>
<path fill="none" stroke="black" d="M250.169,-663.971C234.733,-660.999 218.918,-657.931 204,-655 181.383,-650.556 156.64,-645.598 134.639,-641.155"/>
<polygon fill="none" stroke="black" points="135.236,-637.705 124.741,-639.154 133.849,-644.566 135.236,-637.705"/>
</g>
<!-- \\inscricaoexamesModelcursosdisciplinas -->
<g id="node11" class="node"><title>\\inscricaoexamesModelcursosdisciplinas</title>
<a xlink:href="site.models.cursosdisciplinas.html" xlink:title="inscricaoexamesModelcursosdisciplinas" target="_parent">
<polygon fill="none" stroke="black" points="478,-646 212,-646 212,-610 478,-610 478,-646"/>
<text text-anchor="middle" x="345" y="-625.1" font-family="Courier,monospace" font-size="11.00">inscricaoexamesModelcursosdisciplinas</text>
</a>
</g>
<!-- \\inscricaoexamesModelcursosdisciplinas&#45;&gt;\\JModelItem -->
<g id="edge29" class="edge"><title>\\inscricaoexamesModelcursosdisciplinas&#45;&gt;\\JModelItem</title>
<path fill="none" stroke="black" d="M211.93,-628C190.682,-628 169.293,-628 149.795,-628"/>
<polygon fill="none" stroke="black" points="149.782,-624.5 139.782,-628 149.782,-631.5 149.782,-624.5"/>
</g>
<!-- \\inscricaoexamesModelModulos -->
<g id="node12" class="node"><title>\\inscricaoexamesModelModulos</title>
<a xlink:href="site.models.modulos.html" xlink:title="inscricaoexamesModelModulos" target="_parent">
<polygon fill="none" stroke="black" points="444,-592 246,-592 246,-556 444,-556 444,-592"/>
<text text-anchor="middle" x="345" y="-571.1" font-family="Courier,monospace" font-size="11.00">inscricaoexamesModelModulos</text>
</a>
</g>
<!-- \\inscricaoexamesModelModulos&#45;&gt;\\JModelItem -->
<g id="edge31" class="edge"><title>\\inscricaoexamesModelModulos&#45;&gt;\\JModelItem</title>
<path fill="none" stroke="black" d="M250.169,-592.029C234.733,-595.001 218.918,-598.069 204,-601 181.383,-605.444 156.64,-610.402 134.639,-614.845"/>
<polygon fill="none" stroke="black" points="133.849,-611.434 124.741,-616.846 135.236,-618.295 133.849,-611.434"/>
</g>
<!-- \\inscricaoexamesModeldisciplinas -->
<g id="node13" class="node"><title>\\inscricaoexamesModeldisciplinas</title>
<a xlink:href="site.models.disciplinas.html" xlink:title="inscricaoexamesModeldisciplinas" target="_parent">
<polygon fill="none" stroke="black" points="458,-538 232,-538 232,-502 458,-502 458,-538"/>
<text text-anchor="middle" x="345" y="-517.1" font-family="Courier,monospace" font-size="11.00">inscricaoexamesModeldisciplinas</text>
</a>
</g>
<!-- \\inscricaoexamesModeldisciplinas&#45;&gt;\\JModelItem -->
<g id="edge33" class="edge"><title>\\inscricaoexamesModeldisciplinas&#45;&gt;\\JModelItem</title>
<path fill="none" stroke="black" d="M231.634,-538.009C222.166,-540.625 212.842,-543.606 204,-547 166.378,-561.439 127.394,-586.317 101.241,-604.702"/>
<polygon fill="none" stroke="black" points="98.9927,-602.007 92.8845,-610.664 103.058,-607.705 98.9927,-602.007"/>
</g>
<!-- \\inscricaoexamesModelAlunos -->
<g id="node14" class="node"><title>\\inscricaoexamesModelAlunos</title>
<a xlink:href="site.models.alunos.html" xlink:title="inscricaoexamesModelAlunos" target="_parent">
<polygon fill="none" stroke="black" points="441,-484 249,-484 249,-448 441,-448 441,-484"/>
<text text-anchor="middle" x="345" y="-463.1" font-family="Courier,monospace" font-size="11.00">inscricaoexamesModelAlunos</text>
</a>
</g>
<!-- \\inscricaoexamesModelAlunos&#45;&gt;\\JModelItem -->
<g id="edge35" class="edge"><title>\\inscricaoexamesModelAlunos&#45;&gt;\\JModelItem</title>
<path fill="none" stroke="black" d="M248.677,-476.412C233.191,-480.326 217.751,-485.68 204,-493 154.173,-519.523 111.145,-570.813 88.0506,-601.971"/>
<polygon fill="none" stroke="black" points="85.126,-600.042 82.0762,-610.189 90.7877,-604.159 85.126,-600.042"/>
</g>
<!-- \\inscricaoexamesController -->
<g id="node15" class="node"><title>\\inscricaoexamesController</title>
<a xlink:href="admin.controller.html" xlink:title="inscricaoexamesController" target="_parent">
<polygon fill="none" stroke="black" points="437,-322 253,-322 253,-286 437,-286 437,-322"/>
<text text-anchor="middle" x="345" y="-301.1" font-family="Courier,monospace" font-size="11.00">inscricaoexamesController</text>
</a>
</g>
<!-- \\JController -->
<g id="node44" class="node"><title>\\JController</title>
<ellipse fill="none" stroke="black" cx="70" cy="-358" rx="67.1751" ry="18.3848"/>
<text text-anchor="middle" x="70" y="-354.4" font-family="Times Roman,serif" font-size="14.00" fill="gray">\JController</text>
</g>
<!-- \\inscricaoexamesController&#45;&gt;\\JController -->
<g id="edge37" class="edge"><title>\\inscricaoexamesController&#45;&gt;\\JController</title>
<path fill="none" stroke="black" d="M252.444,-312.732C236.291,-315.699 219.652,-318.925 204,-322 175.014,-327.695 142.535,-334.236 116.813,-340.487"/>
<polygon fill="none" stroke="black" points="115.8,-337.133 106.951,-342.959 117.502,-343.923 115.8,-337.133"/>
</g>
<!-- \\inscricaoexamesController&#45;&gt;\\JController -->
<g id="edge55" class="edge"><title>\\inscricaoexamesController&#45;&gt;\\JController</title>
<path fill="none" stroke="black" d="M292.415,-322.03C265.89,-327.993 233.225,-334.258 204,-340 184.765,-343.779 163.992,-347.931 144.676,-351.518"/>
<polygon fill="none" stroke="black" points="143.931,-348.097 134.724,-353.338 145.19,-354.982 143.931,-348.097"/>
</g>
<!-- \\inscricaoexamesControllerOpcoes -->
<g id="node16" class="node"><title>\\inscricaoexamesControllerOpcoes</title>
<a xlink:href="admin.controllers.opcoes.html" xlink:title="inscricaoexamesControllerOpcoes" target="_parent">
<polygon fill="none" stroke="black" points="458,-430 232,-430 232,-394 458,-394 458,-430"/>
<text text-anchor="middle" x="345" y="-409.1" font-family="Courier,monospace" font-size="11.00">inscricaoexamesControllerOpcoes</text>
</a>
</g>
<!-- \\inscricaoexamesControllerOpcoes&#45;&gt;\\JController -->
<g id="edge39" class="edge"><title>\\inscricaoexamesControllerOpcoes&#45;&gt;\\JController</title>
<path fill="none" stroke="black" d="M292.415,-393.97C265.89,-388.007 233.225,-381.742 204,-376 184.765,-372.221 163.992,-368.069 144.676,-364.482"/>
<polygon fill="none" stroke="black" points="145.19,-361.018 134.724,-362.662 143.931,-367.903 145.19,-361.018"/>
</g>
<!-- \\inscricaoexamesControllerOpcoes&#45;&gt;\\JController -->
<g id="edge57" class="edge"><title>\\inscricaoexamesControllerOpcoes&#45;&gt;\\JController</title>
<path fill="none" stroke="black" d="M231.851,-399.405C222.427,-397.606 213.049,-395.778 204,-394 175.014,-388.305 142.535,-381.764 116.813,-375.513"/>
<polygon fill="none" stroke="black" points="117.502,-372.077 106.951,-373.041 115.8,-378.867 117.502,-372.077"/>
</g>
<!-- \\JHtmlIcon -->
<g id="node17" class="node"><title>\\JHtmlIcon</title>
<a xlink:href="site.helpers.icon.html" xlink:title="JHtmlIcon" target="_parent">
<polygon fill="none" stroke="black" points="383,-376 307,-376 307,-340 383,-340 383,-376"/>
<text text-anchor="middle" x="345" y="-355.1" font-family="Courier,monospace" font-size="11.00">JHtmlIcon</text>
</a>
</g>
<!-- \\inscricaoexamesModelOpcoes -->
<g id="node18" class="node"><title>\\inscricaoexamesModelOpcoes</title>
<a xlink:href="admin.models.opcoes.html" xlink:title="inscricaoexamesModelOpcoes" target="_parent">
<polygon fill="none" stroke="black" points="441,-808 249,-808 249,-772 441,-772 441,-808"/>
<text text-anchor="middle" x="345" y="-787.1" font-family="Courier,monospace" font-size="11.00">inscricaoexamesModelOpcoes</text>
</a>
</g>
<!-- \\inscricaoexamesModelOpcoes&#45;&gt;\\JModelItem -->
<g id="edge43" class="edge"><title>\\inscricaoexamesModelOpcoes&#45;&gt;\\JModelItem</title>
<path fill="none" stroke="black" d="M248.677,-779.588C233.191,-775.674 217.751,-770.32 204,-763 154.173,-736.477 111.145,-685.187 88.0506,-654.029"/>
<polygon fill="none" stroke="black" points="90.7877,-651.841 82.0762,-645.811 85.126,-655.958 90.7877,-651.841"/>
</g>
<!-- \\inscricaoexamesTablecursos -->
<g id="node19" class="node"><title>\\inscricaoexamesTablecursos</title>
<a xlink:href="admin.tables.cursos.html" xlink:title="inscricaoexamesTablecursos" target="_parent">
<polygon fill="none" stroke="black" points="441,-160 249,-160 249,-124 441,-124 441,-160"/>
<text text-anchor="middle" x="345" y="-139.1" font-family="Courier,monospace" font-size="11.00">inscricaoexamesTablecursos</text>
</a>
</g>
<!-- \\JTable -->
<g id="node49" class="node"><title>\\JTable</title>
<ellipse fill="none" stroke="black" cx="70" cy="-142" rx="43.1335" ry="18.3848"/>
<text text-anchor="middle" x="70" y="-138.4" font-family="Times Roman,serif" font-size="14.00" fill="gray">\JTable</text>
</g>
<!-- \\inscricaoexamesTablecursos&#45;&gt;\\JTable -->
<g id="edge45" class="edge"><title>\\inscricaoexamesTablecursos&#45;&gt;\\JTable</title>
<path fill="none" stroke="black" d="M248.818,-142C206.668,-142 158.807,-142 123.214,-142"/>
<polygon fill="none" stroke="black" points="123.049,-138.5 113.049,-142 123.049,-145.5 123.049,-138.5"/>
</g>
<!-- \\inscricaoexamesTablemodulos -->
<g id="node20" class="node"><title>\\inscricaoexamesTablemodulos</title>
<a xlink:href="admin.tables.modulos.html" xlink:title="inscricaoexamesTablemodulos" target="_parent">
<polygon fill="none" stroke="black" points="444,-106 246,-106 246,-70 444,-70 444,-106"/>
<text text-anchor="middle" x="345" y="-85.1" font-family="Courier,monospace" font-size="11.00">inscricaoexamesTablemodulos</text>
</a>
</g>
<!-- \\inscricaoexamesTablemodulos&#45;&gt;\\JTable -->
<g id="edge47" class="edge"><title>\\inscricaoexamesTablemodulos&#45;&gt;\\JTable</title>
<path fill="none" stroke="black" d="M250.169,-106.029C234.733,-109.001 218.918,-112.069 204,-115 175.756,-120.549 144.196,-126.901 118.802,-132.049"/>
<polygon fill="none" stroke="black" points="117.786,-128.684 108.682,-134.103 119.178,-135.544 117.786,-128.684"/>
</g>
<!-- \\inscricaoexamesTableOpcoes -->
<g id="node21" class="node"><title>\\inscricaoexamesTableOpcoes</title>
<a xlink:href="admin.tables.opcoes.html" xlink:title="inscricaoexamesTableOpcoes" target="_parent">
<polygon fill="none" stroke="black" points="441,-52 249,-52 249,-16 441,-16 441,-52"/>
<text text-anchor="middle" x="345" y="-31.1" font-family="Courier,monospace" font-size="11.00">inscricaoexamesTableOpcoes</text>
</a>
</g>
<!-- \\inscricaoexamesTableOpcoes&#45;&gt;\\JTable -->
<g id="edge49" class="edge"><title>\\inscricaoexamesTableOpcoes&#45;&gt;\\JTable</title>
<path fill="none" stroke="black" d="M248.909,-47.6493C233.63,-51.168 218.194,-55.5525 204,-61 165.466,-75.789 125.503,-101.529 99.3621,-120.027"/>
<polygon fill="none" stroke="black" points="97.1302,-117.321 91.0488,-125.997 101.213,-123.007 97.1302,-117.321"/>
</g>
<!-- \\inscricaoexamesTabledisciplinas -->
<g id="node22" class="node"><title>\\inscricaoexamesTabledisciplinas</title>
<a xlink:href="admin.tables.disciplinas.html" xlink:title="inscricaoexamesTabledisciplinas" target="_parent">
<polygon fill="none" stroke="black" points="458,-268 232,-268 232,-232 458,-232 458,-268"/>
<text text-anchor="middle" x="345" y="-247.1" font-family="Courier,monospace" font-size="11.00">inscricaoexamesTabledisciplinas</text>
</a>
</g>
<!-- \\inscricaoexamesTabledisciplinas&#45;&gt;\\JTable -->
<g id="edge51" class="edge"><title>\\inscricaoexamesTabledisciplinas&#45;&gt;\\JTable</title>
<path fill="none" stroke="black" d="M231.634,-231.991C222.166,-229.375 212.842,-226.394 204,-223 165.466,-208.211 125.503,-182.471 99.3621,-163.973"/>
<polygon fill="none" stroke="black" points="101.213,-160.993 91.0488,-158.003 97.1302,-166.679 101.213,-160.993"/>
</g>
<!-- \\inscricaoexamesTablealunos -->
<g id="node23" class="node"><title>\\inscricaoexamesTablealunos</title>
<a xlink:href="admin.tables.alunos.html" xlink:title="inscricaoexamesTablealunos" target="_parent">
<polygon fill="none" stroke="black" points="441,-214 249,-214 249,-178 441,-178 441,-214"/>
<text text-anchor="middle" x="345" y="-193.1" font-family="Courier,monospace" font-size="11.00">inscricaoexamesTablealunos</text>
</a>
</g>
<!-- \\inscricaoexamesTablealunos&#45;&gt;\\JTable -->
<g id="edge53" class="edge"><title>\\inscricaoexamesTablealunos&#45;&gt;\\JTable</title>
<path fill="none" stroke="black" d="M250.169,-177.971C234.733,-174.999 218.918,-171.931 204,-169 175.756,-163.451 144.196,-157.099 118.802,-151.951"/>
<polygon fill="none" stroke="black" points="119.178,-148.456 108.682,-149.897 117.786,-155.316 119.178,-148.456"/>
</g>
</g>
</svg>
